<?xml version="1.0" encoding="UTF-8"?>
<svg width="106px" height="26px" viewBox="0 0 106 26" version="1.1" xmlns="http://www.w3.org/2000/svg" xmlns:xlink="http://www.w3.org/1999/xlink">
    <!-- Generator: Sketch 42 (36781) - http://www.bohemiancoding.com/sketch -->
    <title>Sunday logo ColorBrand</title>
    <desc>Created with Sketch.</desc>
    <defs></defs>
    <g id="Symbols" stroke="none" stroke-width="1" fill="none" fill-rule="evenodd">
        <g id="Global-elements-/-Main-navigation" transform="translate(-547.000000, -12.000000)" fill="#990eff">
            <g id="Logos-/-Sunday-ColorBrand" transform="translate(547.000000, 12.000000)">
                <g id="Sunday-logo-white">
                    <path d="M100.568476,5.19300306 L97.2870205,14.2752091 L94.0054043,5.19300306 L88.899007,5.19300306 L94.9478543,19.9433591 C94.2823685,21.7019851 93.5447081,22.0306542 91.8470766,22.0306542 L91.8470766,25.033675 C92.4436025,25.4329435 93.3035901,25.6759074 94.3037477,25.6759074 C96.5498424,25.6759074 97.7957795,24.4435971 98.4977544,22.7077093 L105.675034,5.19300306 L100.568476,5.19300306 Z" id="Fill-1"></path>
                    <path d="M78.6156772,16.649529 C76.4396675,16.649529 74.6674501,14.8963093 74.6674501,12.7439801 C74.6674501,10.5914919 76.4396675,8.83827217 78.6156772,8.83827217 C80.7916869,8.83827217 82.5640651,10.5914919 82.5640651,12.7439801 C82.5640651,14.8963093 80.7916869,16.649529 78.6156772,16.649529 M87.3020341,14.9138002 L87.3020341,5.19301896 L82.9149722,5.19301896 L82.9149722,6.59228737 C81.5455826,5.50085801 79.806318,4.84574599 77.9137023,4.84574599 C73.5091191,4.84574599 69.9293203,8.3868491 69.9293203,12.7439801 C69.9293203,17.1009521 73.5091191,20.6420552 77.9137023,20.6420552 C79.9955152,20.6420552 81.8923103,19.8503555 83.3145851,18.5560322 C84.1033625,19.7096336 85.4381919,20.4684187 86.951127,20.4684187 C87.8284751,20.4684187 88.688302,20.1906321 89.232425,19.8261863 L89.232425,16.8231655 C87.986327,16.8231655 87.3020341,16.1461104 87.3020341,14.9138002" id="Fill-10"></path>
                    <path d="M58.961778,16.649529 C56.7857683,16.649529 55.0133901,14.8963093 55.0133901,12.7439801 C55.0133901,10.5914919 56.7857683,8.83827217 58.961778,8.83827217 C61.1377877,8.83827217 62.9100051,10.5914919 62.9100051,12.7439801 C62.9100051,14.8963093 61.1377877,16.649529 58.961778,16.649529 M67.6481349,14.9138002 L67.6481349,0.158991872 L62.9100051,0.158991872 L62.9100051,6.32865248 C61.5996091,5.39670792 59.9944061,4.84574599 58.2598031,4.84574599 C53.8552199,4.84574599 50.2754211,8.3868491 50.2754211,12.7439801 C50.2754211,17.1009521 53.8552199,20.6420552 58.2598031,20.6420552 C60.341616,20.6420552 62.2382504,19.8503555 63.6606859,18.5560322 C64.4494633,19.7096336 65.7842926,20.4684187 67.2972278,20.4684187 C68.1745759,20.4684187 69.0344028,20.1906321 69.578365,19.8261863 L69.578365,16.8231655 C68.3324278,16.8231655 67.6481349,16.1461104 67.6481349,14.9138002" id="Fill-7"></path>
                    <path d="M42.7297935,4.84577779 C40.8283369,4.84577779 39.1382603,5.72334169 38.0461564,7.09064953 C37.2740965,5.84848081 35.8878287,5.01941428 34.3065768,5.01941428 C33.4292287,5.01941428 32.5694018,5.29720086 32.0254396,5.66164667 L32.0254396,8.66466748 C33.2713767,8.66466748 33.9556697,9.34172258 33.9556697,10.5740328 L33.9556697,20.294814 L36.7634086,20.294814 L38.6936387,20.294814 L38.6936387,11.4420563 C38.6936387,10.0012868 39.8693301,8.83830397 41.3258437,8.83830397 C42.7823573,8.83830397 43.9582094,10.0012868 43.9582094,11.4420563 L43.9582094,20.294814 L48.6961785,20.294814 L48.6961785,10.7476693 C48.6961785,7.48435278 46.0287702,4.84577779 42.7297935,4.84577779" id="Fill-12"></path>
                    <path d="M29.7441256,14.9137366 L29.7441256,5.19295536 L26.9363867,5.19295536 L25.0059958,5.19295536 L25.0059958,14.0458721 C25.0059958,15.4864826 23.8303044,16.6494654 22.3739515,16.6494654 C20.917438,16.6494654 19.7415858,15.4864826 19.7415858,14.0458721 L19.7415858,5.19295536 L15.0036168,5.19295536 L15.0036168,14.7401001 C15.0036168,18.0034166 17.671025,20.6419916 20.9700017,20.6419916 C22.8714584,20.6419916 24.5616957,19.7644277 25.6536388,18.3971199 C26.4256987,19.6392886 27.8119665,20.4683551 29.3930577,20.4683551 C30.2705666,20.4683551 31.1303934,20.1907275 31.6743557,19.8261227 L31.6743557,16.8231019 C30.4285793,16.8231019 29.7441256,16.1462058 29.7441256,14.9137366" id="Fill-14"></path>
                    <path d="M6.98414408,10.8344876 C6.10679599,10.7130056 5.01871076,10.4873736 5.01871076,9.6020183 C5.01871076,8.71666302 5.86101636,8.31755351 6.75604644,8.31755351 C7.65091577,8.31755351 8.49322137,8.69933117 8.49322137,9.87980488 L13.2488724,9.87980488 C13.2488724,6.42536101 10.3358453,4.84577779 6.75604644,4.84577779 C3.17624763,4.84577779 0.263220501,6.47751556 0.263220501,9.6715047 C0.263220501,13.2126078 2.96567123,13.9416584 6.5279488,14.4277452 C7.5808308,14.566559 8.79156473,14.8095229 8.79156473,15.8510238 C8.79156473,16.8405292 7.8966954,17.1703113 6.75604644,17.1703113 C5.63291872,17.1703113 4.7203674,16.6842245 4.7203674,15.3477642 L-8.03726721e-05,15.3477642 C-8.03726721e-05,18.697899 2.80765855,20.642087 6.75604644,20.642087 C10.7044343,20.642087 13.5120125,18.697899 13.5120125,15.5907281 C13.5120125,11.8933203 10.7044343,11.355238 6.98414408,10.8344876" id="Fill-4"></path>
                </g>
            </g>
        </g>
    </g>
</svg>